<svg class="svg-standalone-icon" width="100%" viewBox="208.0002079464772 115.00000000000003 133.99958410704562 126.00491274494806"><g data-paper-data="{&quot;fillRule&quot;:&quot;nonzero&quot;,&quot;fillRuleOriginal&quot;:&quot;nonzero&quot;,&quot;isIcon&quot;:true,&quot;iconStyle&quot;:&quot;standalone&quot;,&quot;selectedEffects&quot;:{&quot;container&quot;:&quot;enclosed_circle_outline3&quot;,&quot;transformation&quot;:&quot;&quot;,&quot;pattern&quot;:&quot;&quot;},&quot;bounds&quot;:{&quot;x&quot;:208.0002079464772,&quot;y&quot;:115.00000000000003,&quot;width&quot;:133.99958410704562,&quot;height&quot;:126.00491274494806},&quot;widthRatioIconToContainer&quot;:0.8766204423561494,&quot;heightRatioIconToContainer&quot;:1,&quot;relativeBoundsIconToContainer&quot;:{&quot;top&quot;:0,&quot;left&quot;:0.0616897788219253},&quot;iconType&quot;:&quot;initial&quot;,&quot;initialText&quot;:&quot;D&quot;,&quot;rawInitialId&quot;:555,&quot;blockLetter&quot;:&quot;O&quot;,&quot;suitableAsStandaloneIcon&quot;:true}" fill-rule="nonzero"><path d="M340.11241,193.3711c-7.19001,28.04103 -31.99554,47.63381 -61.11508,47.63381h-34.87154v-19.59278h-19.59278v-86.81936h19.59278v-19.59278h34.87154c29.11954,0 53.92507,19.59278 61.11508,47.63381c2.51651,10.24576 2.51651,20.49152 0,30.73729zM232.98128,212.96388h11.14451v-69.92284h-11.14451zM252.57405,212.96388h25.34478c17.07627,0 31.09679,-10.42552 34.87154,-26.24353c1.438,-5.93176 1.438,-11.68377 0,-17.43577c-3.77475,-15.81802 -17.61552,-26.24353 -34.87154,-26.24353h-25.34478zM331.8439,164.79081c-6.11151,-24.26628 -28.04103,-41.34255 -52.84657,-41.34255h-26.42328v11.14451h25.34478c21.03078,0 38.2868,13.12177 43.14005,32.53479c1.7975,7.36976 1.7975,14.73952 0,21.74978c-4.6735,19.41302 -22.28903,32.53479 -43.14005,32.53479h-25.34478v11.14451h26.42328c24.80553,0 46.73506,-16.89652 52.84657,-41.1628c2.33675,-9.16726 2.157,-18.15477 0,-26.60303zM213.09236,203.22059c-3.39477,-8.02642 -5.09215,-16.43247 -5.09215,-25.21814c0,-8.78585 1.69739,-17.19184 5.09215,-25.21798c2.0341,-4.80917 4.5876,-9.27684 7.66051,-13.40301v9.10724c-1.13646,2.00496 -2.16003,4.084 -3.07071,6.2371c-3.13232,7.40562 -4.69848,15.1645 -4.69848,23.27665c0,8.11221 1.56616,15.87108 4.69848,23.27659c0.91069,2.15309 1.93426,4.23213 3.07071,6.2371v9.10728c-3.07291,-4.1262 -5.62641,-8.59382 -7.66051,-13.40283zM228.39642,130.81265c3.66459,-3.45462 7.64767,-6.42482 11.94925,-8.91061v5.84056c-1.4808,0.957 -2.91808,1.98035 -4.31181,3.07005zM240.34567,234.10278c-4.27506,-2.4704 -8.23555,-5.41926 -11.88148,-8.84659l7.81569,0.12741c1.31669,1.01833 2.67195,1.97788 4.06579,2.87865z" data-paper-data="{&quot;isPathIcon&quot;:true}" style="fill: rgb(255, 255, 255);"></path></g></svg>